solid PSU_Lid
facet normal 1.0574874309554518e-15 -1.0 0.0
  outer loop
    vertex 198.5 6.000000000000003 7.0000000000000115
    vertex 196.49999999999997 6.0 1.9999999999999998
    vertex 198.5 6.000000000000003 1.9999999999999998
  endloop
endfacet
facet normal 1.0574874309554518e-15 -1.0 0.0
  outer loop
    vertex 196.49999999999997 6.0 1.9999999999999998
    vertex 198.5 6.000000000000003 7.0000000000000115
    vertex 196.49999999999997 6.0 7.0000000000000115
  endloop
endfacet
facet normal 0.0 1.0 2.4195272065146005e-34
  outer loop
    vertex 0.0 0.0 7.0
    vertex 148.5 0.0 1.9999999999999998
    vertex 0.0 0.0 1.9999999999999998
  endloop
endfacet
facet normal 0.0 1.0 2.4195272065146005e-34
  outer loop
    vertex 148.5 0.0 1.9999999999999998
    vertex 0.0 0.0 7.0
    vertex 148.5 0.0 7.0
  endloop
endfacet
facet normal -1.0 1.5346756367607604e-16 0.0
  outer loop
    vertex 196.5 151.0 7.0000000000000115
    vertex 196.49999999999997 6.0 1.9999999999999998
    vertex 196.49999999999997 6.0 7.0000000000000115
  endloop
endfacet
facet normal -1.0 1.5346756367607604e-16 0.0
  outer loop
    vertex 196.49999999999997 6.0 1.9999999999999998
    vertex 196.5 151.0 7.0000000000000115
    vertex 196.5 151.0 1.9999999999999998
  endloop
endfacet
facet normal 1.0 0.0 0.0
  outer loop
    vertex 198.5 151.0 1.9999999999999998
    vertex 198.5 6.000000000000003 7.0000000000000115
    vertex 198.5 6.000000000000003 1.9999999999999998
  endloop
endfacet
facet normal 1.0 0.0 0.0
  outer loop
    vertex 198.5 6.000000000000003 7.0000000000000115
    vertex 198.5 151.0 1.9999999999999998
    vertex 198.5 151.0 7.0000000000000115
  endloop
endfacet
facet normal -1.0 0.0 5.937606415357391e-18
  outer loop
    vertex 148.5 157.0 7.0
    vertex 148.5 0.0 1.9999999999999998
    vertex 148.5 0.0 7.0
  endloop
endfacet
facet normal -1.0 0.0 5.937606415357391e-18
  outer loop
    vertex 148.5 0.0 1.9999999999999998
    vertex 148.5 157.0 7.0
    vertex 148.5 157.0 1.9999999999999998
  endloop
endfacet
facet normal 0.0 0.0 1.0
  outer loop
    vertex 148.5 0.0 1.9999999999999998
    vertex 0.0 157.0 1.9999999999999998
    vertex 0.0 0.0 1.9999999999999998
  endloop
endfacet
facet normal 0.0 0.0 1.0
  outer loop
    vertex 0.0 157.0 1.9999999999999998
    vertex 148.5 0.0 1.9999999999999998
    vertex 148.5 157.0 1.9999999999999998
  endloop
endfacet
facet normal -5.762213853397966e-18 1.0 -8.170188194544579e-17
  outer loop
    vertex 150.5 0.0 7.0
    vertex 203.00000000000003 0.0 1.9999999999999998
    vertex 150.5 0.0 1.9999999999999998
  endloop
endfacet
facet normal -5.762213853397966e-18 1.0 -8.170188194544579e-17
  outer loop
    vertex 203.00000000000003 0.0 1.9999999999999998
    vertex 150.5 0.0 7.0
    vertex 203.00000000000003 7.049916206369744e-16 7.00000000000001
  endloop
endfacet
facet normal 0.0 1.0 0.0
  outer loop
    vertex 196.5 151.0 7.0000000000000115
    vertex 198.5 151.0 1.9999999999999998
    vertex 196.5 151.0 1.9999999999999998
  endloop
endfacet
facet normal 0.0 1.0 0.0
  outer loop
    vertex 198.5 151.0 1.9999999999999998
    vertex 196.5 151.0 7.0000000000000115
    vertex 198.5 151.0 7.0000000000000115
  endloop
endfacet
facet normal -6.397080518080736e-17 -3.494441188221809e-18 1.0
  outer loop
    vertex 150.5 0.0 1.9999999999999998
    vertex 196.49999999999997 6.0 1.9999999999999998
    vertex 150.5 157.0 1.9999999999999998
  endloop
endfacet
facet normal -6.397080518080736e-17 -3.494441188221809e-18 1.0
  outer loop
    vertex 196.49999999999997 6.0 1.9999999999999998
    vertex 150.5 0.0 1.9999999999999998
    vertex 203.00000000000003 0.0 1.9999999999999998
  endloop
endfacet
facet normal -6.397080518080736e-17 -3.494441188221809e-18 1.0
  outer loop
    vertex 196.49999999999997 6.0 1.9999999999999998
    vertex 203.00000000000003 0.0 1.9999999999999998
    vertex 198.5 6.000000000000003 1.9999999999999998
  endloop
endfacet
facet normal -6.397080518080736e-17 -3.494441188221809e-18 1.0
  outer loop
    vertex 198.5 6.000000000000003 1.9999999999999998
    vertex 203.00000000000003 0.0 1.9999999999999998
    vertex 201.011125 6.000000000000005 2.000000000000007
  endloop
endfacet
facet normal -6.397080518080736e-17 -3.494441188221809e-18 1.0
  outer loop
    vertex 198.5 6.000000000000003 1.9999999999999998
    vertex 201.011125 6.000000000000005 2.000000000000007
    vertex 198.5 151.0 1.9999999999999998
  endloop
endfacet
facet normal -6.397080518080736e-17 -3.494441188221809e-18 1.0
  outer loop
    vertex 201.011125 6.000000000000005 2.000000000000007
    vertex 203.00000000000003 0.0 1.9999999999999998
    vertex 203.00000000000003 6.000000000000005 2.00000000000001
  endloop
endfacet
facet normal -6.397080518080736e-17 -3.494441188221809e-18 1.0
  outer loop
    vertex 150.5 157.0 1.9999999999999998
    vertex 196.5 151.0 1.9999999999999998
    vertex 203.0 157.0 1.9999999999999998
  endloop
endfacet
facet normal -6.397080518080736e-17 -3.494441188221809e-18 1.0
  outer loop
    vertex 196.5 151.0 1.9999999999999998
    vertex 150.5 157.0 1.9999999999999998
    vertex 196.49999999999997 6.0 1.9999999999999998
  endloop
endfacet
facet normal -6.397080518080736e-17 -3.494441188221809e-18 1.0
  outer loop
    vertex 203.0 157.0 1.9999999999999998
    vertex 196.5 151.0 1.9999999999999998
    vertex 198.5 151.0 1.9999999999999998
  endloop
endfacet
facet normal -6.397080518080736e-17 -3.494441188221809e-18 1.0
  outer loop
    vertex 203.0 157.0 1.9999999999999998
    vertex 198.5 151.0 1.9999999999999998
    vertex 201.011125 151.0 2.000000000000007
  endloop
endfacet
facet normal -6.397080518080736e-17 -3.494441188221809e-18 1.0
  outer loop
    vertex 201.011125 151.0 2.000000000000007
    vertex 198.5 151.0 1.9999999999999998
    vertex 201.011125 6.000000000000005 2.000000000000007
  endloop
endfacet
facet normal -6.397080518080736e-17 -3.494441188221809e-18 1.0
  outer loop
    vertex 203.0 157.0 1.9999999999999998
    vertex 201.011125 151.0 2.000000000000007
    vertex 203.0 151.0 2.000000000000007
  endloop
endfacet
facet normal 0.0 0.0 1.0
  outer loop
    vertex 198.5 6.000000000000003 7.0000000000000115
    vertex 196.5 151.0 7.0000000000000115
    vertex 196.49999999999997 6.0 7.0000000000000115
  endloop
endfacet
facet normal 0.0 0.0 1.0
  outer loop
    vertex 196.5 151.0 7.0000000000000115
    vertex 198.5 6.000000000000003 7.0000000000000115
    vertex 198.5 151.0 7.0000000000000115
  endloop
endfacet
facet normal 1.0 0.0 -5.937606415357391e-18
  outer loop
    vertex 0.0 157.0 1.9999999999999998
    vertex 0.0 0.0 7.0
    vertex 0.0 0.0 1.9999999999999998
  endloop
endfacet
facet normal 1.0 0.0 -5.937606415357391e-18
  outer loop
    vertex 0.0 0.0 7.0
    vertex 0.0 157.0 1.9999999999999998
    vertex 0.0 157.0 7.0
  endloop
endfacet
facet normal 1.0 0.0 -5.937606415357391e-18
  outer loop
    vertex 150.5 157.0 1.9999999999999998
    vertex 150.5 0.0 7.0
    vertex 150.5 0.0 1.9999999999999998
  endloop
endfacet
facet normal 1.0 0.0 -5.937606415357391e-18
  outer loop
    vertex 150.5 0.0 7.0
    vertex 150.5 157.0 1.9999999999999998
    vertex 150.5 157.0 7.0
  endloop
endfacet
facet normal 0.0 -1.0 0.0
  outer loop
    vertex 203.0 157.0 7.000000000000001
    vertex 150.5 157.0 1.9999999999999998
    vertex 203.0 157.0 1.9999999999999998
  endloop
endfacet
facet normal 0.0 -1.0 0.0
  outer loop
    vertex 150.5 157.0 1.9999999999999998
    vertex 203.0 157.0 7.000000000000001
    vertex 150.5 157.0 7.0
  endloop
endfacet
facet normal 0.0 -1.0 0.0
  outer loop
    vertex 148.5 157.0 7.0
    vertex 0.0 157.0 1.9999999999999998
    vertex 148.5 157.0 1.9999999999999998
  endloop
endfacet
facet normal 0.0 -1.0 0.0
  outer loop
    vertex 0.0 157.0 1.9999999999999998
    vertex 148.5 157.0 7.0
    vertex 0.0 157.0 7.0
  endloop
endfacet
facet normal -1.0 0.0 -3.204507366531701e-16
  outer loop
    vertex -1.9999999999999998 159.0 7.000000000000001
    vertex -1.999999999999998 -1.999999999999998 1.5
    vertex -1.9999999999999998 -1.9999999999999998 7.000000000000001
  endloop
endfacet
facet normal -1.0 0.0 -3.204507366531701e-16
  outer loop
    vertex -1.999999999999998 -1.999999999999998 1.5
    vertex -1.9999999999999998 159.0 7.000000000000001
    vertex -1.999999999999998 159.0 1.5
  endloop
endfacet
facet normal 0.0 1.0 0.0
  outer loop
    vertex -1.9999999999999998 159.0 7.000000000000001
    vertex 204.5 159.0 1.5
    vertex -1.999999999999998 159.0 1.5
  endloop
endfacet
facet normal 0.0 1.0 0.0
  outer loop
    vertex 204.5 159.0 1.5
    vertex -1.9999999999999998 159.0 7.000000000000001
    vertex 204.5 159.0 7.000000000000004
  endloop
endfacet
facet normal 2.447262941730578e-18 -1.0 -2.286511197597022e-16
  outer loop
    vertex 204.5 -1.999999999999999 7.000000000000012
    vertex -1.999999999999998 -1.999999999999998 1.5
    vertex 204.5 -1.999999999999998 1.5
  endloop
endfacet
facet normal 2.447262941730578e-18 -1.0 -2.286511197597022e-16
  outer loop
    vertex -1.999999999999998 -1.999999999999998 1.5
    vertex 204.5 -1.999999999999999 7.000000000000012
    vertex -1.9999999999999998 -1.9999999999999998 7.000000000000001
  endloop
endfacet
facet normal 1.0 0.0 0.0
  outer loop
    vertex 204.5 -1.999999999999998 1.5
    vertex 204.5 159.0 7.000000000000004
    vertex 204.5 -1.999999999999999 7.000000000000012
  endloop
endfacet
facet normal 1.0 0.0 0.0
  outer loop
    vertex 204.5 159.0 7.000000000000004
    vertex 204.5 -1.999999999999998 1.5
    vertex 204.5 159.0 1.5
  endloop
endfacet
facet normal -0.7933533402912355 1.4180459630890118e-18 -0.6087614290087204
  outer loop
    vertex -1.7990381056766567 158.79903810567666 0.7499999999999999
    vertex -1.5606601717798205 -1.5606601717798205 0.4393398282201786
    vertex -1.7990381056766571 -1.7990381056766571 0.7499999999999998
  endloop
endfacet
facet normal -0.7933533402912355 1.4180459630890118e-18 -0.6087614290087204
  outer loop
    vertex -1.5606601717798205 -1.5606601717798205 0.4393398282201786
    vertex -1.7990381056766567 158.79903810567666 0.7499999999999999
    vertex -1.5606601717798203 158.56066017177983 0.4393398282201786
  endloop
endfacet
facet normal 4.112738795186772e-19 -0.3826834323650897 -0.9238795325112867
  outer loop
    vertex -0.8882285676537806 -0.8882285676537806 0.051111260566397455
    vertex 203.75 -1.2499999999999996 0.20096189432334202
    vertex -1.2499999999999996 -1.2499999999999996 0.20096189432334186
  endloop
endfacet
facet normal 4.112738795186772e-19 -0.3826834323650897 -0.9238795325112867
  outer loop
    vertex 203.75 -1.2499999999999996 0.20096189432334202
    vertex -0.8882285676537806 -0.8882285676537806 0.051111260566397455
    vertex 203.38822856765378 -0.8882285676537806 0.051111260566397455
  endloop
endfacet
facet normal -0.13052619222005132 0.0 -0.9914448613738105
  outer loop
    vertex -0.49999999999999944 157.5 0.0
    vertex -0.8882285676537806 -0.8882285676537806 0.051111260566397455
    vertex -0.8882285676537806 157.88822856765378 0.051111260566397455
  endloop
endfacet
facet normal -0.13052619222005132 0.0 -0.9914448613738105
  outer loop
    vertex -0.8882285676537806 -0.8882285676537806 0.051111260566397455
    vertex -0.49999999999999944 157.5 0.0
    vertex -0.49999999999999944 -0.49999999999999944 0.0
  endloop
endfacet
facet normal -0.9238795325112873 1.3581512447169488e-18 -0.3826834323650886
  outer loop
    vertex -1.9488887394336007 158.9488887394336 1.1117714323462187
    vertex -1.7990381056766571 -1.7990381056766571 0.7499999999999998
    vertex -1.9488887394336007 -1.9488887394336007 1.1117714323462184
  endloop
endfacet
facet normal -0.9238795325112873 1.3581512447169488e-18 -0.3826834323650886
  outer loop
    vertex -1.7990381056766571 -1.7990381056766571 0.7499999999999998
    vertex -1.9488887394336007 158.9488887394336 1.1117714323462187
    vertex -1.7990381056766567 158.79903810567666 0.7499999999999999
  endloop
endfacet
facet normal 0.0 0.0 -1.0
  outer loop
    vertex 203.00000000000003 157.5 0.0
    vertex -0.49999999999999944 -0.49999999999999944 0.0
    vertex -0.49999999999999944 157.5 0.0
  endloop
endfacet
facet normal 0.0 0.0 -1.0
  outer loop
    vertex -0.49999999999999944 -0.49999999999999944 0.0
    vertex 203.00000000000003 157.5 0.0
    vertex 203.00000000000003 -0.49999999999999944 0.0
  endloop
endfacet
facet normal -0.6087614290087211 7.025429956003293e-19 -0.793353340291235
  outer loop
    vertex -1.5606601717798203 158.56066017177983 0.4393398282201786
    vertex -1.2499999999999996 -1.2499999999999996 0.20096189432334186
    vertex -1.5606601717798205 -1.5606601717798205 0.4393398282201786
  endloop
endfacet
facet normal -0.6087614290087211 7.025429956003293e-19 -0.793353340291235
  outer loop
    vertex -1.2499999999999996 -1.2499999999999996 0.20096189432334186
    vertex -1.5606601717798203 158.56066017177983 0.4393398282201786
    vertex -1.2499999999999996 158.25000000000003 0.20096189432334202
  endloop
endfacet
facet normal -0.38268343236508984 4.969451488278862e-19 -0.9238795325112867
  outer loop
    vertex -0.8882285676537806 157.88822856765378 0.051111260566397455
    vertex -1.2499999999999996 -1.2499999999999996 0.20096189432334186
    vertex -1.2499999999999996 158.25000000000003 0.20096189432334202
  endloop
endfacet
facet normal -0.38268343236508984 4.969451488278862e-19 -0.9238795325112867
  outer loop
    vertex -1.2499999999999996 -1.2499999999999996 0.20096189432334186
    vertex -0.8882285676537806 157.88822856765378 0.051111260566397455
    vertex -0.8882285676537806 -0.8882285676537806 0.051111260566397455
  endloop
endfacet
facet normal -0.9914448613738105 6.767068849295052e-20 -0.1305261922200507
  outer loop
    vertex -1.999999999999998 159.0 1.5
    vertex -1.9488887394336007 -1.9488887394336007 1.1117714323462184
    vertex -1.999999999999998 -1.999999999999998 1.5
  endloop
endfacet
facet normal -0.9914448613738105 6.767068849295052e-20 -0.1305261922200507
  outer loop
    vertex -1.9488887394336007 -1.9488887394336007 1.1117714323462184
    vertex -1.999999999999998 159.0 1.5
    vertex -1.9488887394336007 158.9488887394336 1.1117714323462187
  endloop
endfacet
facet normal 6.475609203552747e-19 -0.608761429008721 -0.7933533402912349
  outer loop
    vertex -1.2499999999999996 -1.2499999999999996 0.20096189432334186
    vertex 204.06066017177983 -1.5606601717798203 0.4393398282201786
    vertex -1.5606601717798205 -1.5606601717798205 0.4393398282201786
  endloop
endfacet
facet normal 6.475609203552747e-19 -0.608761429008721 -0.7933533402912349
  outer loop
    vertex 204.06066017177983 -1.5606601717798203 0.4393398282201786
    vertex -1.2499999999999996 -1.2499999999999996 0.20096189432334186
    vertex 203.75 -1.2499999999999996 0.20096189432334202
  endloop
endfacet
facet normal 0.9238795325113002 3.2462893409987985e-19 -0.3826834323650574
  outer loop
    vertex 204.29903810567666 -1.7990381056766567 0.7499999999999999
    vertex 204.44888873943358 158.9488887394336 1.1117714323462187
    vertex 204.44888873943358 -1.9488887394336007 1.1117714323462187
  endloop
endfacet
facet normal 0.9238795325113002 3.2462893409987985e-19 -0.3826834323650574
  outer loop
    vertex 204.44888873943358 158.9488887394336 1.1117714323462187
    vertex 204.29903810567666 -1.7990381056766567 0.7499999999999999
    vertex 204.29903810567666 158.79903810567666 0.75
  endloop
endfacet
facet normal 0.0 -0.13052619222005132 -0.9914448613738105
  outer loop
    vertex -0.49999999999999944 -0.49999999999999944 0.0
    vertex 203.38822856765378 -0.8882285676537806 0.051111260566397455
    vertex -0.8882285676537806 -0.8882285676537806 0.051111260566397455
  endloop
endfacet
facet normal 0.0 -0.13052619222005132 -0.9914448613738105
  outer loop
    vertex 203.38822856765378 -0.8882285676537806 0.051111260566397455
    vertex -0.49999999999999944 -0.49999999999999944 0.0
    vertex 203.00000000000003 -0.49999999999999944 0.0
  endloop
endfacet
facet normal 1.0236386887695612e-18 -0.9238795325112873 -0.3826834323650886
  outer loop
    vertex 204.29903810567666 -1.7990381056766567 0.7499999999999999
    vertex -1.9488887394336007 -1.9488887394336007 1.1117714323462184
    vertex -1.7990381056766571 -1.7990381056766571 0.7499999999999998
  endloop
endfacet
facet normal 1.0236386887695612e-18 -0.9238795325112873 -0.3826834323650886
  outer loop
    vertex -1.9488887394336007 -1.9488887394336007 1.1117714323462184
    vertex 204.29903810567666 -1.7990381056766567 0.7499999999999999
    vertex 204.44888873943358 -1.9488887394336007 1.1117714323462187
  endloop
endfacet
facet normal 1.134300819949125e-18 -0.7933533402912355 -0.6087614290087204
  outer loop
    vertex 204.29903810567666 -1.7990381056766567 0.7499999999999999
    vertex -1.5606601717798205 -1.5606601717798205 0.4393398282201786
    vertex 204.06066017177983 -1.5606601717798203 0.4393398282201786
  endloop
endfacet
facet normal 1.134300819949125e-18 -0.7933533402912355 -0.6087614290087204
  outer loop
    vertex -1.5606601717798205 -1.5606601717798205 0.4393398282201786
    vertex 204.29903810567666 -1.7990381056766567 0.7499999999999999
    vertex -1.7990381056766571 -1.7990381056766571 0.7499999999999998
  endloop
endfacet
facet normal 5.553185173378503e-20 -0.9914448613738105 -0.1305261922200507
  outer loop
    vertex 204.44888873943358 -1.9488887394336007 1.1117714323462187
    vertex -1.999999999999998 -1.999999999999998 1.5
    vertex -1.9488887394336007 -1.9488887394336007 1.1117714323462184
  endloop
endfacet
facet normal 5.553185173378503e-20 -0.9914448613738105 -0.1305261922200507
  outer loop
    vertex -1.999999999999998 -1.999999999999998 1.5
    vertex 204.44888873943358 -1.9488887394336007 1.1117714323462187
    vertex 204.5 -1.999999999999998 1.5
  endloop
endfacet
facet normal 0.38268343236509905 7.005036152818739e-21 -0.923879532511283
  outer loop
    vertex 203.75 158.25000000000003 0.20096189432334202
    vertex 203.38822856765378 -0.8882285676537806 0.051111260566397455
    vertex 203.38822856765378 157.88822856765378 0.051111260566397455
  endloop
endfacet
facet normal 0.38268343236509905 7.005036152818739e-21 -0.923879532511283
  outer loop
    vertex 203.38822856765378 -0.8882285676537806 0.051111260566397455
    vertex 203.75 158.25000000000003 0.20096189432334202
    vertex 203.75 -1.2499999999999996 0.20096189432334202
  endloop
endfacet
facet normal 0.13052619222005216 0.0 -0.9914448613738105
  outer loop
    vertex 203.38822856765378 157.88822856765378 0.051111260566397455
    vertex 203.00000000000003 -0.49999999999999944 0.0
    vertex 203.00000000000003 157.5 0.0
  endloop
endfacet
facet normal 0.13052619222005216 0.0 -0.9914448613738105
  outer loop
    vertex 203.00000000000003 -0.49999999999999944 0.0
    vertex 203.38822856765378 157.88822856765378 0.051111260566397455
    vertex 203.38822856765378 -0.8882285676537806 0.051111260566397455
  endloop
endfacet
facet normal 0.9914448613738039 6.76706884929767e-20 -0.13052619222010123
  outer loop
    vertex 204.44888873943358 -1.9488887394336007 1.1117714323462187
    vertex 204.5 159.0 1.5
    vertex 204.5 -1.999999999999998 1.5
  endloop
endfacet
facet normal 0.9914448613738039 6.76706884929767e-20 -0.13052619222010123
  outer loop
    vertex 204.5 159.0 1.5
    vertex 204.44888873943358 -1.9488887394336007 1.1117714323462187
    vertex 204.44888873943358 158.9488887394336 1.1117714323462187
  endloop
endfacet
facet normal 0.793353340291248 5.459546781391996e-19 -0.6087614290087041
  outer loop
    vertex 204.06066017177983 -1.5606601717798203 0.4393398282201786
    vertex 204.29903810567666 158.79903810567666 0.75
    vertex 204.29903810567666 -1.7990381056766567 0.7499999999999999
  endloop
endfacet
facet normal 0.793353340291248 5.459546781391996e-19 -0.6087614290087041
  outer loop
    vertex 204.29903810567666 158.79903810567666 0.75
    vertex 204.06066017177983 -1.5606601717798203 0.4393398282201786
    vertex 204.06066017177983 158.56066017177983 0.4393398282201788
  endloop
endfacet
facet normal 0.6087614290087019 4.1718862399643204e-19 -0.7933533402912498
  outer loop
    vertex 204.06066017177983 158.56066017177983 0.4393398282201788
    vertex 203.75 -1.2499999999999996 0.20096189432334202
    vertex 203.75 158.25000000000003 0.20096189432334202
  endloop
endfacet
facet normal 0.6087614290087019 4.1718862399643204e-19 -0.7933533402912498
  outer loop
    vertex 203.75 -1.2499999999999996 0.20096189432334202
    vertex 204.06066017177983 158.56066017177983 0.4393398282201788
    vertex 204.06066017177983 -1.5606601717798203 0.4393398282201786
  endloop
endfacet
facet normal -8.472601244978788e-21 0.38268343236507874 -0.9238795325112914
  outer loop
    vertex 203.75 158.25000000000003 0.20096189432334202
    vertex -0.8882285676537806 157.88822856765378 0.051111260566397455
    vertex -1.2499999999999996 158.25000000000003 0.20096189432334202
  endloop
endfacet
facet normal -8.472601244978788e-21 0.38268343236507874 -0.9238795325112914
  outer loop
    vertex -0.8882285676537806 157.88822856765378 0.051111260566397455
    vertex 203.75 158.25000000000003 0.20096189432334202
    vertex 203.38822856765378 157.88822856765378 0.051111260566397455
  endloop
endfacet
facet normal 0.0 0.13052619222005218 -0.9914448613738105
  outer loop
    vertex 203.38822856765378 157.88822856765378 0.051111260566397455
    vertex -0.49999999999999944 157.5 0.0
    vertex -0.8882285676537806 157.88822856765378 0.051111260566397455
  endloop
endfacet
facet normal 0.0 0.13052619222005218 -0.9914448613738105
  outer loop
    vertex -0.49999999999999944 157.5 0.0
    vertex 203.38822856765378 157.88822856765378 0.051111260566397455
    vertex 203.00000000000003 157.5 0.0
  endloop
endfacet
facet normal 5.55318517337878e-20 0.9914448613738114 -0.13052619222004458
  outer loop
    vertex -1.999999999999998 159.0 1.5
    vertex 204.44888873943358 158.9488887394336 1.1117714323462187
    vertex -1.9488887394336007 158.9488887394336 1.1117714323462187
  endloop
endfacet
facet normal 5.55318517337878e-20 0.9914448613738114 -0.13052619222004458
  outer loop
    vertex 204.44888873943358 158.9488887394336 1.1117714323462187
    vertex -1.999999999999998 159.0 1.5
    vertex 204.5 159.0 1.5
  endloop
endfacet
facet normal 2.45810639113103e-19 0.9238795325112799 -0.38268343236510666
  outer loop
    vertex -1.9488887394336007 158.9488887394336 1.1117714323462187
    vertex 204.29903810567666 158.79903810567666 0.75
    vertex -1.7990381056766567 158.79903810567666 0.7499999999999999
  endloop
endfacet
facet normal 2.45810639113103e-19 0.9238795325112799 -0.38268343236510666
  outer loop
    vertex 204.29903810567666 158.79903810567666 0.75
    vertex -1.9488887394336007 158.9488887394336 1.1117714323462187
    vertex 204.44888873943358 158.9488887394336 1.1117714323462187
  endloop
endfacet
facet normal 3.858449428465725e-19 0.7933533402912478 -0.6087614290087041
  outer loop
    vertex -1.7990381056766567 158.79903810567666 0.7499999999999999
    vertex 204.06066017177983 158.56066017177983 0.4393398282201788
    vertex -1.5606601717798203 158.56066017177983 0.4393398282201786
  endloop
endfacet
facet normal 3.858449428465725e-19 0.7933533402912478 -0.6087614290087041
  outer loop
    vertex 204.06066017177983 158.56066017177983 0.4393398282201788
    vertex -1.7990381056766567 158.79903810567666 0.7499999999999999
    vertex 204.29903810567666 158.79903810567666 0.75
  endloop
endfacet
facet normal 3.1449973834747727e-19 0.6087614290087296 -0.7933533402912283
  outer loop
    vertex 204.06066017177983 158.56066017177983 0.4393398282201788
    vertex -1.2499999999999996 158.25000000000003 0.20096189432334202
    vertex -1.5606601717798203 158.56066017177983 0.4393398282201786
  endloop
endfacet
facet normal 3.1449973834747727e-19 0.6087614290087296 -0.7933533402912283
  outer loop
    vertex -1.2499999999999996 158.25000000000003 0.20096189432334202
    vertex 204.06066017177983 158.56066017177983 0.4393398282201788
    vertex 203.75 158.25000000000003 0.20096189432334202
  endloop
endfacet
facet normal -1.0 2.255973186038322e-14 0.0
  outer loop
    vertex 203.00000000000003 152.0 6.999999999999998
    vertex 203.0 151.0 2.000000000000007
    vertex 203.0 151.0 6.999999999999996
  endloop
endfacet
facet normal -1.0 0.0 0.0
  outer loop
    vertex 203.00000000000003 6.000000000000005 2.00000000000001
    vertex 203.00000000000003 5.0 6.999999999999998
    vertex 203.00000000000003 6.000000000000005 6.999999999999998
  endloop
endfacet
facet normal -1.0 -1.8491583492117313e-15 2.44088902095949e-15
  outer loop
    vertex 203.00000000000003 152.0 6.999999999999998
    vertex 203.0 157.0 1.9999999999999998
    vertex 203.0 151.0 2.000000000000007
  endloop
endfacet
facet normal -1.0 -1.8491583492117313e-15 2.44088902095949e-15
  outer loop
    vertex 203.0 157.0 1.9999999999999998
    vertex 203.00000000000003 152.0 6.999999999999998
    vertex 203.0 157.0 7.000000000000001
  endloop
endfacet
facet normal -1.0 0.0 0.0
  outer loop
    vertex 203.00000000000003 7.049916206369744e-16 7.00000000000001
    vertex 203.00000000000003 6.000000000000005 2.00000000000001
    vertex 203.00000000000003 0.0 1.9999999999999998
  endloop
endfacet
facet normal -1.0 0.0 0.0
  outer loop
    vertex 203.00000000000003 6.000000000000005 2.00000000000001
    vertex 203.00000000000003 7.049916206369744e-16 7.00000000000001
    vertex 203.00000000000003 5.0 6.999999999999998
  endloop
endfacet
facet normal -3.335291944611667e-18 1.2362759125843648e-17 1.0
  outer loop
    vertex -1.9999999999999998 -1.9999999999999998 7.000000000000001
    vertex 0.0 0.0 7.0
    vertex -1.9999999999999998 159.0 7.000000000000001
  endloop
endfacet
facet normal -3.335291944611667e-18 1.2362759125843648e-17 1.0
  outer loop
    vertex 0.0 0.0 7.0
    vertex -1.9999999999999998 -1.9999999999999998 7.000000000000001
    vertex 204.5 -1.999999999999999 7.000000000000012
  endloop
endfacet
facet normal -3.335291944611667e-18 1.2362759125843648e-17 1.0
  outer loop
    vertex 0.0 0.0 7.0
    vertex 204.5 -1.999999999999999 7.000000000000012
    vertex 148.5 0.0 7.0
  endloop
endfacet
facet normal -3.335291944611667e-18 1.2362759125843648e-17 1.0
  outer loop
    vertex 148.5 0.0 7.0
    vertex 204.5 -1.999999999999999 7.000000000000012
    vertex 150.5 0.0 7.0
  endloop
endfacet
facet normal -3.335291944611667e-18 1.2362759125843648e-17 1.0
  outer loop
    vertex 148.5 0.0 7.0
    vertex 150.5 0.0 7.0
    vertex 148.5 157.0 7.0
  endloop
endfacet
facet normal -3.335291944611667e-18 1.2362759125843648e-17 1.0
  outer loop
    vertex 150.5 0.0 7.0
    vertex 204.5 -1.999999999999999 7.000000000000012
    vertex 203.00000000000003 7.049916206369744e-16 7.00000000000001
  endloop
endfacet
facet normal -3.335291944611667e-18 1.2362759125843648e-17 1.0
  outer loop
    vertex 203.00000000000003 7.049916206369744e-16 7.00000000000001
    vertex 204.5 -1.999999999999999 7.000000000000012
    vertex 203.00000000000003 5.0 6.999999999999998
  endloop
endfacet
facet normal -3.335291944611667e-18 1.2362759125843648e-17 1.0
  outer loop
    vertex 203.00000000000003 5.0 6.999999999999998
    vertex 204.5 -1.999999999999999 7.000000000000012
    vertex 203.00000000000003 6.000000000000005 6.999999999999998
  endloop
endfacet
facet normal -3.335291944611667e-18 1.2362759125843648e-17 1.0
  outer loop
    vertex 203.00000000000003 6.000000000000005 6.999999999999998
    vertex 204.5 -1.999999999999999 7.000000000000012
    vertex 203.00000000000003 152.0 6.999999999999998
  endloop
endfacet
facet normal -3.335291944611667e-18 1.2362759125843648e-17 1.0
  outer loop
    vertex -1.9999999999999998 159.0 7.000000000000001
    vertex 0.0 157.0 7.0
    vertex 204.5 159.0 7.000000000000004
  endloop
endfacet
facet normal -3.335291944611667e-18 1.2362759125843648e-17 1.0
  outer loop
    vertex 0.0 157.0 7.0
    vertex -1.9999999999999998 159.0 7.000000000000001
    vertex 0.0 0.0 7.0
  endloop
endfacet
facet normal -3.335291944611667e-18 1.2362759125843648e-17 1.0
  outer loop
    vertex 204.5 159.0 7.000000000000004
    vertex 0.0 157.0 7.0
    vertex 148.5 157.0 7.0
  endloop
endfacet
facet normal -3.335291944611667e-18 1.2362759125843648e-17 1.0
  outer loop
    vertex 204.5 159.0 7.000000000000004
    vertex 148.5 157.0 7.0
    vertex 150.5 157.0 7.0
  endloop
endfacet
facet normal -3.335291944611667e-18 1.2362759125843648e-17 1.0
  outer loop
    vertex 150.5 157.0 7.0
    vertex 148.5 157.0 7.0
    vertex 150.5 0.0 7.0
  endloop
endfacet
facet normal -3.335291944611667e-18 1.2362759125843648e-17 1.0
  outer loop
    vertex 204.5 159.0 7.000000000000004
    vertex 150.5 157.0 7.0
    vertex 203.0 157.0 7.000000000000001
  endloop
endfacet
facet normal -3.335291944611667e-18 1.2362759125843648e-17 1.0
  outer loop
    vertex 204.5 159.0 7.000000000000004
    vertex 203.0 157.0 7.000000000000001
    vertex 203.00000000000003 152.0 6.999999999999998
  endloop
endfacet
facet normal -3.335291944611667e-18 1.2362759125843648e-17 1.0
  outer loop
    vertex 204.5 159.0 7.000000000000004
    vertex 203.00000000000003 152.0 6.999999999999998
    vertex 204.5 -1.999999999999999 7.000000000000012
  endloop
endfacet
facet normal -3.335291944611667e-18 1.2362759125843648e-17 1.0
  outer loop
    vertex 203.00000000000003 6.000000000000005 6.999999999999998
    vertex 201.011125 151.0 6.999999999999996
    vertex 201.011125 6.000000000000005 6.999999999999996
  endloop
endfacet
facet normal -3.335291944611667e-18 1.2362759125843648e-17 1.0
  outer loop
    vertex 201.011125 151.0 6.999999999999996
    vertex 203.00000000000003 6.000000000000005 6.999999999999998
    vertex 203.0 151.0 6.999999999999996
  endloop
endfacet
facet normal -3.335291944611667e-18 1.2362759125843648e-17 1.0
  outer loop
    vertex 203.0 151.0 6.999999999999996
    vertex 203.00000000000003 6.000000000000005 6.999999999999998
    vertex 203.00000000000003 152.0 6.999999999999998
  endloop
endfacet
facet normal 0.0 -1.0 0.0
  outer loop
    vertex 203.00000000000003 6.000000000000005 2.00000000000001
    vertex 201.011125 6.000000000000005 6.999999999999996
    vertex 201.011125 6.000000000000005 2.000000000000007
  endloop
endfacet
facet normal 0.0 -1.0 0.0
  outer loop
    vertex 201.011125 6.000000000000005 6.999999999999996
    vertex 203.00000000000003 6.000000000000005 2.00000000000001
    vertex 203.00000000000003 6.000000000000005 6.999999999999998
  endloop
endfacet
facet normal 0.0 1.0 0.0
  outer loop
    vertex 201.011125 151.0 6.999999999999996
    vertex 203.0 151.0 2.000000000000007
    vertex 201.011125 151.0 2.000000000000007
  endloop
endfacet
facet normal 0.0 1.0 0.0
  outer loop
    vertex 203.0 151.0 2.000000000000007
    vertex 201.011125 151.0 6.999999999999996
    vertex 203.0 151.0 6.999999999999996
  endloop
endfacet
facet normal -1.0 -0.0 -8.861688399685501e-16
  outer loop
    vertex 201.011125 151.0 6.999999999999996
    vertex 201.011125 6.000000000000005 2.000000000000007
    vertex 201.011125 6.000000000000005 6.999999999999996
  endloop
endfacet
facet normal -1.0 -0.0 -8.861688399685501e-16
  outer loop
    vertex 201.011125 6.000000000000005 2.000000000000007
    vertex 201.011125 151.0 6.999999999999996
    vertex 201.011125 151.0 2.000000000000007
  endloop
endfacet
endsolid PSU_Lid
